#N canvas 574 199 450 300 10;
#X obj 34 153 pdj jjs myscript.js;
#X floatatom 43 197 5 0 0 0 - - -;
#X msg 68 108 what is this;
#X floatatom 60 74 5 0 0 0 - - -;
#X msg 36 25 reload;
#X connect 0 0 1 0;
#X connect 2 0 0 0;
#X connect 3 0 0 0;
#X connect 4 0 0 0;
